# xmcd
#
# Track frame offsets: 
#        150
#        32922
#        52075
#        67317
#        104925
#        124585
#        141640
#        158797
#        190175
#        210155
#        235832
#        259670
#
# Disc length: 3751 seconds
#
# Revision: 2
# Processed by: cddbd v1.5.2PL0 Copyright (c) Steve Scherf et al.
# Submitted via: ExactAudioCopy v1.0b2
#
DISCID=ba0ea50c
DTITLE=Various Artist - JAZZ PIANO Best Selection disk-1
DYEAR=1900
DGENRE=Jazz
TTITLE0=Just one of those things
TTITLE1=Get me to the churchi on time
TTITLE2=Days of wine and roses
TTITLE3=C jam blues
TTITLE4=Wisrer not
TTITLE5=Minor meeting
TTITLE6=You and the night and the music
TTITLE7=Waltz for debby
TTITLE8=Cleopatra's dream
TTITLE9=Bagg's groove
TTITLE10=When you wish upon a star
TTITLE11=Night train
EXTD=
EXTT0=
EXTT1=
EXTT2=
EXTT3=
EXTT4=
EXTT5=
EXTT6=
EXTT7=
EXTT8=
EXTT9=
EXTT10=
EXTT11=
PLAYORDER=
